<svg width="174" height="172" viewBox="0 0 174 172" fill="none" xmlns="http://www.w3.org/2000/svg">
<path d="M124.031 21.7812C114.844 19.5938 102.5 18.5 87 18.5C71.4375 18.5 59.0938 19.5938 49.9688 21.7812C40.1563 24.1562 32.5 28.0625 27 33.5C21.5625 39 17.6563 46.6563 15.2813 56.4688C13.3438 64.7188 12.2813 75.5 12.0938 88.8125C12.0938 89.4375 12.0938 90.0625 12.0938 90.6875C12.2813 104 13.3438 114.781 15.2813 123.031C17.6563 132.906 21.5625 140.562 27 146C32.5 151.5 40.1563 155.406 49.9688 157.719C59.0938 159.906 71.4375 161 87 161C102.5 161 114.844 159.906 124.031 157.719C133.906 155.406 141.563 151.5 147 146C152.5 140.562 156.406 132.906 158.719 123.031C160.656 114.906 161.75 104.281 162 91.1562C162 90.9687 162 90.8125 162 90.6875V88.3438C161.75 75.2188 160.656 64.5938 158.719 56.4688C156.406 46.6563 152.5 39 147 33.5C141.563 28.0625 133.906 24.1562 124.031 21.7812Z" fill="url(#paint0_linear_1_2)"/>
<path d="M124.031 14.2812C114.844 12.0938 102.5 11 87 11C71.4375 11 59.0938 12.0938 49.9688 14.2812C40.1563 16.6562 32.5 20.5625 27 26C21.5625 31.5 17.6562 39.1563 15.2812 48.9688C13.0938 58.1563 12 70.5 12 86C12 86.9375 12.0312 87.875 12.0937 88.8125C12.2812 75.5 13.3438 64.7188 15.2812 56.4688C17.6562 46.6563 21.5625 39 27 33.5C32.5 28.0625 40.1563 24.1562 49.9688 21.7812C59.0938 19.5938 71.4375 18.5 87 18.5C102.5 18.5 114.844 19.5938 124.031 21.7812C133.906 24.1562 141.562 28.0625 147 33.5C152.5 39 156.406 46.6563 158.719 56.4688C160.656 64.5938 161.75 75.2188 162 88.3438C162 87.5937 162 86.8125 162 86C162 70.5 160.906 58.1563 158.719 48.9688C156.406 39.1563 152.5 31.5 147 26C141.562 20.5625 133.906 16.6562 124.031 14.2812Z" fill="url(#paint1_linear_1_2)"/>
<path d="M71.7798 72.9786C68.0791 69.2142 63.5808 67.3319 58.285 67.3319C52.9892 67.3319 48.491 69.2142 44.7903 72.9786C41.0258 76.6793 39.1435 81.1776 39.1435 86.4734H77.4265C77.4265 81.1776 75.5442 76.6793 71.7798 72.9786Z" fill="white"/>
<path d="M66.4201 78.3383C64.187 76.1051 61.4752 74.9885 58.285 74.9885C55.1586 74.9885 52.4787 76.1051 50.2456 78.3383C47.9486 80.5714 46.8001 83.2831 46.8001 86.4734H69.7699C69.7699 83.2831 68.6533 80.5714 66.4201 78.3383Z" fill="#3D465D"/>
<path d="M129.204 72.9786C125.504 69.2142 121.005 67.3319 115.709 67.3319C110.414 67.3319 105.915 69.2142 102.215 72.9786C98.4502 76.6793 96.568 81.1776 96.568 86.4734H134.851C134.851 81.1776 132.969 76.6793 129.204 72.9786Z" fill="white"/>
<path d="M123.845 78.3383C121.611 76.1051 118.9 74.9885 115.709 74.9885C112.583 74.9885 109.903 76.1051 107.67 78.3383C105.373 80.5714 104.225 83.2831 104.225 86.4734H127.194C127.194 83.2831 126.078 80.5714 123.845 78.3383Z" fill="#3D465D"/>
<path d="M37.1337 72.3087L38.665 77.8597C38.9202 78.9444 39.4944 79.7419 40.3877 80.2524C41.281 80.7628 42.238 80.8904 43.2589 80.6352L72.8325 72.6915C73.9172 72.4363 74.7148 71.8301 75.2252 70.873C75.7356 70.0436 75.8633 69.0865 75.608 68.0018L74.0767 62.4508C73.8215 61.4299 73.2473 60.6324 72.354 60.0581C71.4607 59.6115 70.4717 59.5158 69.3871 59.771L39.8135 67.7147C38.7926 67.9699 38.0269 68.5442 37.5165 69.4374C37.006 70.3307 36.8784 71.2878 37.1337 72.3087Z" fill="#3D465D"/>
<path d="M98.8649 61.4938C99.3116 62.3232 100.077 62.8656 101.162 63.1208L130.736 71.0645C131.756 71.3835 132.745 71.3197 133.702 70.8731C134.532 70.2988 135.074 69.5013 135.329 68.4804L136.861 62.9294C137.116 61.8447 137.02 60.8876 136.574 60.0581C135.999 59.1011 135.202 58.463 134.181 58.144L104.607 50.2003C103.523 49.9451 102.566 50.1046 101.736 50.6788C100.779 51.1255 100.173 51.8911 99.9177 52.9758L98.3864 58.5268C98.1312 59.5477 98.2907 60.5367 98.8649 61.4938Z" fill="#3D465D"/>
<path d="M106.043 99.681C105.15 99.1067 104.161 98.9791 103.076 99.2982C102.055 99.5534 101.258 100.096 100.683 100.925C100.173 101.627 99.4392 102.297 98.4821 102.935C96.1213 104.403 93.3458 105.136 90.1556 105.136C88.6881 105.136 87.3162 105.009 86.0401 104.753C84.9555 104.562 83.9665 104.753 83.0732 105.328C82.1799 105.774 81.6057 106.54 81.3505 107.625C81.0953 108.582 81.2867 109.507 81.9247 110.4C82.4352 111.166 83.2646 111.676 84.4131 111.932C86.1359 112.314 88.05 112.506 90.1556 112.506C95.0685 112.506 99.3116 111.357 102.885 109.06L102.789 109.156C104.958 107.816 106.553 106.317 107.574 104.658C108.085 103.765 108.212 102.839 107.957 101.882C107.638 100.861 107 100.128 106.043 99.681Z" fill="#3D465D"/>
<defs>
<linearGradient id="paint0_linear_1_2" x1="-250.5" y1="11" x2="-250.5" y2="161" gradientUnits="userSpaceOnUse">
<stop stop-color="#71CF93"/>
<stop offset="1" stop-color="#59B15C"/>
</linearGradient>
<linearGradient id="paint1_linear_1_2" x1="-250.969" y1="10.5313" x2="-250.969" y2="92.0937" gradientUnits="userSpaceOnUse">
<stop stop-color="#85DFAF"/>
<stop offset="1" stop-color="#69C581"/>
</linearGradient>
</defs>
</svg>
